<svg width="353" height="335" viewBox="0 0 353 335" fill="none" xmlns="http://www.w3.org/2000/svg">
<g filter="url(#filter0_d_33_570)">
<rect x="4" y="3" width="345" height="327" rx="40" fill="#F1B197"/>
<path d="M78.6406 97H73.9077L91.8977 47.5455H96.7273L114.717 97H109.984L94.4815 53.4134H94.1435L78.6406 97ZM82.0455 78.044H106.58V82.1009H82.0455V78.044ZM135.653 97.7727C132.611 97.7727 129.946 96.9678 127.661 95.358C125.375 93.7481 123.588 91.5024 122.3 88.6207C121.028 85.7391 120.392 82.3826 120.392 78.5511C120.392 74.7358 121.028 71.3954 122.3 68.5298C123.588 65.6482 125.383 63.4105 127.685 61.8168C129.987 60.2069 132.667 59.402 135.726 59.402C137.98 59.402 139.855 59.8045 141.352 60.6094C142.849 61.3982 144.049 62.3802 144.95 63.5554C145.852 64.7306 146.552 65.8736 147.051 66.9844H147.438V47.5455H151.76V97H147.558V90.1179H147.051C146.552 91.2448 145.844 92.4039 144.926 93.5952C144.009 94.7704 142.793 95.7604 141.28 96.5653C139.783 97.3703 137.907 97.7727 135.653 97.7727ZM136.161 93.8366C138.559 93.8366 140.604 93.1847 142.294 91.8807C143.984 90.5606 145.272 88.7495 146.158 86.4474C147.059 84.1293 147.51 81.473 147.51 78.4787C147.51 75.5166 147.067 72.9006 146.182 70.6307C145.296 68.3447 144.009 66.5578 142.318 65.2699C140.628 63.9659 138.575 63.3139 136.161 63.3139C133.681 63.3139 131.589 63.9901 129.882 65.3423C128.192 66.6785 126.904 68.4896 126.018 70.7756C125.149 73.0616 124.714 75.6293 124.714 78.4787C124.714 81.3603 125.157 83.9602 126.043 86.2784C126.928 88.5966 128.216 90.4399 129.906 91.8082C131.613 93.1605 133.697 93.8366 136.161 93.8366ZM164.003 97V59.9091H168.18V65.608H168.567C169.307 63.6922 170.539 62.187 172.261 61.0923C174 59.9815 176.085 59.4261 178.516 59.4261C181.075 59.4261 183.176 60.0298 184.818 61.2372C186.476 62.4285 187.716 64.0705 188.537 66.1634H188.851C189.688 64.1027 191.048 62.4687 192.932 61.2614C194.831 60.0379 197.134 59.4261 199.838 59.4261C203.283 59.4261 206.004 60.5128 208 62.6861C209.996 64.8433 210.994 67.9986 210.994 72.152V97H206.696V72.152C206.696 69.2221 205.947 67.0246 204.45 65.5597C202.953 64.0947 200.981 63.3622 198.534 63.3622C195.701 63.3622 193.519 64.2315 191.99 65.9702C190.461 67.7088 189.696 69.9143 189.696 72.5866V97H185.301V71.7656C185.301 69.2543 184.601 67.2259 183.2 65.6804C181.8 64.1349 179.828 63.3622 177.284 63.3622C175.578 63.3622 174.04 63.7808 172.672 64.6179C171.32 65.455 170.249 66.6222 169.46 68.1193C168.688 69.6004 168.301 71.3068 168.301 73.2386V97H164.003ZM222.422 97V59.9091H226.745V97H222.422ZM224.62 53.5341C223.734 53.5341 222.978 53.2363 222.35 52.6406C221.722 52.0289 221.408 51.2964 221.408 50.4432C221.408 49.59 221.722 48.8655 222.35 48.2699C222.978 47.6581 223.734 47.3523 224.62 47.3523C225.505 47.3523 226.262 47.6581 226.89 48.2699C227.517 48.8655 227.831 49.59 227.831 50.4432C227.831 51.2964 227.517 52.0289 226.89 52.6406C226.262 53.2363 225.505 53.5341 224.62 53.5341ZM242.411 73.8182V97H238.112V59.9091H242.29V65.7287H242.676C243.545 63.8291 244.898 62.3078 246.733 61.1648C248.584 60.0057 250.87 59.4261 253.591 59.4261C256.086 59.4261 258.276 59.9493 260.159 60.9957C262.059 62.026 263.532 63.5473 264.578 65.5597C265.641 67.572 266.172 70.0431 266.172 72.973V97H261.874V73.2386C261.874 70.196 261.02 67.7893 259.314 66.0185C257.624 64.2476 255.354 63.3622 252.504 63.3622C250.556 63.3622 248.826 63.7808 247.312 64.6179C245.799 65.455 244.6 66.6624 243.714 68.2401C242.845 69.8016 242.411 71.661 242.411 73.8182Z" fill="black"/>
<path d="M232.165 168.897H134.565C133.393 168.897 132.443 169.75 132.443 170.803V176.523H130.321C129.149 176.523 128.199 177.376 128.199 178.429V187.961L126.078 187.962C123.804 187.962 121.702 189.052 120.565 190.821C119.428 192.591 119.428 194.772 120.565 196.541C121.702 198.311 123.804 199.401 126.078 199.401H128.199V207.027H126.078C123.804 207.027 121.702 208.117 120.565 209.887C119.428 211.656 119.428 213.837 120.565 215.607C121.702 217.376 123.804 218.466 126.078 218.466H128.199V226.092H126.078C123.804 226.092 121.702 227.182 120.565 228.952C119.428 230.722 119.428 232.901 120.565 234.671C121.702 236.441 123.804 237.531 126.078 237.531H128.199V245.157H126.078C123.804 245.157 121.702 246.247 120.565 248.017C119.428 249.786 119.428 251.967 120.565 253.736C121.702 255.506 123.804 256.596 126.078 256.596H128.199V264.222H126.078C123.804 264.222 121.702 265.312 120.565 267.082C119.428 268.852 119.428 271.032 120.565 272.802C121.702 274.571 123.804 275.662 126.078 275.662H128.199V285.194C128.199 285.699 128.423 286.185 128.821 286.542C129.219 286.9 129.759 287.1 130.321 287.1H223.678C224.241 287.1 224.781 286.9 225.179 286.542C225.577 286.185 225.8 285.699 225.8 285.194V283.288H232.165C232.728 283.288 233.268 283.086 233.666 282.729C234.064 282.371 234.287 281.887 234.287 281.381V170.803C234.287 170.297 234.064 169.812 233.666 169.454C233.268 169.098 232.728 168.896 232.165 168.896L232.165 168.897ZM123.956 193.682C123.956 192.629 124.906 191.776 126.078 191.776H134.565C135.737 191.776 136.686 192.629 136.686 193.682C136.686 194.735 135.737 195.589 134.565 195.589H126.078C124.906 195.589 123.956 194.735 123.956 193.682ZM123.956 212.748C123.956 211.695 124.906 210.841 126.078 210.841H134.565C135.737 210.841 136.686 211.695 136.686 212.748C136.686 213.801 135.737 214.654 134.565 214.654H126.078C124.906 214.654 123.956 213.801 123.956 212.748ZM123.956 231.813C123.956 230.76 124.906 229.906 126.078 229.906H134.565C135.737 229.906 136.686 230.76 136.686 231.813C136.686 232.865 135.737 233.719 134.565 233.719H126.078C124.906 233.719 123.956 232.865 123.956 231.813ZM123.956 250.877C123.956 249.824 124.906 248.971 126.078 248.971H134.565C135.737 248.971 136.686 249.824 136.686 250.877C136.686 251.93 135.737 252.785 134.565 252.785H126.078C124.906 252.785 123.956 251.93 123.956 250.877ZM123.956 269.943C123.956 268.89 124.906 268.037 126.078 268.037H134.565C135.737 268.037 136.686 268.89 136.686 269.943C136.686 270.996 135.737 271.849 134.565 271.849H126.078C124.906 271.849 123.956 270.996 123.956 269.943ZM221.556 283.289H132.444V275.663H134.565C136.839 275.663 138.941 274.572 140.078 272.803C141.215 271.033 141.215 268.853 140.078 267.083C138.941 265.313 136.839 264.223 134.565 264.223H132.444V256.597H134.565C136.839 256.597 138.941 255.507 140.078 253.737C141.215 251.968 141.215 249.787 140.078 248.018C138.941 246.248 136.839 245.158 134.565 245.158H132.444V237.532H134.565C136.839 237.532 138.941 236.442 140.078 234.672C141.215 232.902 141.215 230.722 140.078 228.953C138.941 227.183 136.839 226.093 134.565 226.093H132.444V218.467H134.565C136.839 218.467 138.941 217.377 140.078 215.608C141.215 213.837 141.215 211.657 140.078 209.888C138.941 208.118 136.839 207.028 134.565 207.028H132.444V199.402H134.565C136.839 199.402 138.941 198.312 140.078 196.542C141.215 194.773 141.215 192.592 140.078 190.822C138.941 189.053 136.839 187.963 134.565 187.963H132.444V180.337H221.556V283.289ZM230.043 279.476L225.799 279.475V178.43C225.799 177.925 225.576 177.439 225.178 177.082C224.78 176.725 224.24 176.524 223.678 176.524H136.686V172.711H230.044L230.043 279.476Z" fill="black"/>
<path d="M155.782 201.309C158.802 201.286 161.581 199.823 163.079 197.468C164.577 195.113 164.57 192.219 163.061 189.87L167.899 185.542L164.885 182.796L160.026 187.143C157.744 185.914 154.951 185.717 152.483 186.613C150.015 187.508 148.158 189.392 147.466 191.702C146.774 194.011 147.328 196.478 148.962 198.366C150.596 200.254 153.122 201.343 155.782 201.309ZM160.026 193.683C160.026 194.694 159.579 195.664 158.783 196.379C157.987 197.094 156.908 197.496 155.782 197.496C155.417 197.491 155.054 197.447 154.7 197.363L159.877 192.711H159.878C159.972 193.028 160.021 193.354 160.026 193.683ZM155.782 189.87C156.148 189.874 156.512 189.919 156.865 190.003L151.688 194.655C151.594 194.338 151.544 194.011 151.539 193.683C151.539 192.671 151.986 191.702 152.782 190.986C153.578 190.271 154.657 189.87 155.782 189.87Z" fill="black"/>
<path d="M155.782 220.374C158.033 220.374 160.192 219.569 161.784 218.14C163.376 216.709 164.27 214.77 164.27 212.747C164.27 210.725 163.376 208.784 161.784 207.355C160.192 205.924 158.034 205.121 155.782 205.121C153.531 205.121 151.373 205.924 149.781 207.355C148.19 208.784 147.295 210.725 147.295 212.747C147.295 214.77 148.19 216.709 149.781 218.14C151.373 219.569 153.531 220.374 155.782 220.374ZM155.782 208.934C156.908 208.934 157.987 209.336 158.783 210.051C159.579 210.767 160.027 211.736 160.027 212.748C160.027 213.759 159.579 214.729 158.783 215.444C157.987 216.159 156.908 216.56 155.782 216.56C154.657 216.56 153.578 216.159 152.782 215.444C151.986 214.729 151.539 213.759 151.539 212.748C151.539 211.736 151.986 210.767 152.782 210.051C153.578 209.336 154.657 208.934 155.782 208.934Z" fill="black"/>
<path d="M155.782 239.439C158.802 239.416 161.581 237.953 163.079 235.598C164.577 233.242 164.57 230.349 163.061 228L167.899 223.672L164.885 220.964L160.026 225.273C157.744 224.044 154.951 223.847 152.483 224.742C150.015 225.638 148.158 227.522 147.466 229.832C146.774 232.141 147.328 234.608 148.962 236.496C150.596 238.384 153.122 239.473 155.782 239.439ZM160.026 231.813C160.026 232.824 159.579 233.794 158.783 234.509C157.987 235.224 156.908 235.626 155.782 235.626C155.417 235.621 155.054 235.577 154.7 235.493L159.878 230.84C159.972 231.158 160.021 231.484 160.026 231.813ZM155.782 228C156.148 228.004 156.512 228.048 156.865 228.133L151.688 232.785C151.594 232.467 151.544 232.141 151.539 231.813C151.539 230.801 151.986 229.832 152.782 229.116C153.578 228.401 154.657 228 155.782 228Z" fill="black"/>
<path d="M155.782 258.504C158.802 258.481 161.581 257.018 163.079 254.663C164.577 252.308 164.57 249.414 163.061 247.065L167.899 242.737L164.885 240.029L160.026 244.338C157.744 243.109 154.951 242.912 152.483 243.808C150.015 244.704 148.158 246.587 147.466 248.897C146.774 251.206 147.328 253.673 148.962 255.561C150.596 257.449 153.122 258.539 155.782 258.504ZM160.026 250.878C160.026 251.889 159.579 252.859 158.783 253.574C157.987 254.289 156.908 254.691 155.782 254.691C155.417 254.686 155.054 254.642 154.7 254.558L159.877 249.906H159.878C159.972 250.223 160.021 250.549 160.026 250.878ZM155.782 247.065C156.148 247.069 156.512 247.114 156.865 247.198L151.688 251.85C151.594 251.533 151.544 251.207 151.539 250.878C151.539 249.867 151.986 248.897 152.782 248.181C153.578 247.467 154.657 247.065 155.782 247.065Z" fill="black"/>
<path d="M155.782 277.569C158.033 277.569 160.192 276.765 161.784 275.335C163.376 273.904 164.27 271.965 164.27 269.942C164.27 267.92 163.376 265.98 161.784 264.55C160.192 263.119 158.034 262.316 155.782 262.316C153.531 262.316 151.373 263.119 149.781 264.55C148.19 265.98 147.295 267.92 147.295 269.942C147.295 271.965 148.19 273.904 149.781 275.335C151.373 276.765 153.531 277.569 155.782 277.569ZM155.782 266.129C156.908 266.129 157.987 266.531 158.783 267.246C159.579 267.962 160.027 268.931 160.027 269.943C160.027 270.954 159.579 271.924 158.783 272.639C157.987 273.354 156.908 273.755 155.782 273.755C154.657 273.755 153.578 273.354 152.782 272.639C151.986 271.924 151.539 270.954 151.539 269.943C151.539 268.931 151.986 267.962 152.782 267.246C153.578 266.531 154.657 266.129 155.782 266.129Z" fill="black"/>
<path d="M170.634 187.964H215.19V191.777H170.634V187.964Z" fill="black"/>
<path d="M170.634 195.59H215.19V199.403H170.634V195.59Z" fill="black"/>
<path d="M170.634 207.029H215.19V210.842H170.634V207.029Z" fill="black"/>
<path d="M170.634 214.653H215.19V218.466H170.634V214.653Z" fill="black"/>
<path d="M170.634 226.092H215.19V229.904H170.634V226.092Z" fill="black"/>
<path d="M170.634 233.718H215.19V237.531H170.634V233.718Z" fill="black"/>
<path d="M170.634 245.159H215.19V248.972H170.634V245.159Z" fill="black"/>
<path d="M170.634 252.785H215.19V256.598H170.634V252.785Z" fill="black"/>
<path d="M170.634 264.224H215.19V268.037H170.634V264.224Z" fill="black"/>
<path d="M170.634 271.848H215.19V275.661H170.634V271.848Z" fill="black"/>
</g>
<defs>
<filter id="filter0_d_33_570" x="0" y="0" width="353" height="335" filterUnits="userSpaceOnUse" color-interpolation-filters="sRGB">
<feFlood flood-opacity="0" result="BackgroundImageFix"/>
<feColorMatrix in="SourceAlpha" type="matrix" values="0 0 0 0 0 0 0 0 0 0 0 0 0 0 0 0 0 0 127 0" result="hardAlpha"/>
<feOffset dy="1"/>
<feGaussianBlur stdDeviation="2"/>
<feComposite in2="hardAlpha" operator="out"/>
<feColorMatrix type="matrix" values="0 0 0 0 0 0 0 0 0 0 0 0 0 0 0 0 0 0 0.25 0"/>
<feBlend mode="normal" in2="BackgroundImageFix" result="effect1_dropShadow_33_570"/>
<feBlend mode="normal" in="SourceGraphic" in2="effect1_dropShadow_33_570" result="shape"/>
</filter>
</defs>
</svg>
