<svg width="586" height="249" viewBox="0 0 586 249" fill="none" xmlns="http://www.w3.org/2000/svg">
<path d="M41.7943 172.626L44.9791 174.952L37.198 185.605L72.3963 211.315L69.5887 215.159L34.3904 189.449L26.5692 200.157L23.3843 197.83L41.7943 172.626Z" fill="black"/>
<path d="M68.1101 156.189C69.9521 154.066 72.0461 152.552 74.3922 151.646C76.7679 150.707 79.2962 150.559 81.9771 151.205C84.6535 151.787 87.31 153.221 89.9465 155.509L106.382 169.769L103.307 173.313L87.2825 159.409C84.235 156.765 81.2382 155.515 78.2919 155.66C75.3753 155.77 72.7733 157.144 70.4856 159.78C68.1386 162.485 67.1229 165.385 67.4386 168.48C67.7543 171.575 69.5729 174.563 72.8943 177.445L88.2001 190.725L85.0806 194.32L47.0729 161.343L50.1924 157.748L64.9332 170.537C64.0278 168.191 63.8556 165.761 64.4166 163.247C65.0073 160.699 66.2384 158.346 68.1101 156.189Z" fill="black"/>
<path d="M126.442 122.056C127.552 123.251 128.368 124.195 128.888 124.888L106.319 145.853C108.331 147.82 110.465 149.118 112.719 149.746C114.973 150.374 117.186 150.392 119.357 149.798C121.497 149.171 123.431 148.055 125.158 146.451C127.417 144.353 128.801 142.046 129.31 139.531C129.853 136.985 129.51 134.55 128.28 132.228L131.967 128.803C133.771 132.077 134.364 135.579 133.745 139.31C133.129 142.976 131.177 146.336 127.889 149.391C125.331 151.766 122.515 153.331 119.44 154.083C116.334 154.803 113.228 154.656 110.122 153.644C107.018 152.567 104.154 150.617 101.532 147.794C98.9093 144.971 97.1753 141.972 96.3299 138.797C95.4846 135.622 95.5504 132.529 96.5274 129.518C97.5045 126.507 99.2883 123.798 101.879 121.391C104.47 118.985 107.253 117.451 110.228 116.791C113.237 116.1 116.151 116.239 118.97 117.209C121.791 118.115 124.282 119.731 126.442 122.056ZM122.812 125.242C120.963 123.185 118.943 121.843 116.753 121.217C114.596 120.561 112.448 120.546 110.307 121.172C108.167 121.799 106.233 122.915 104.506 124.519C101.916 126.926 100.478 129.808 100.194 133.166C99.9101 136.523 101.072 139.806 103.681 143.014L122.812 125.242Z" fill="black"/>
<path d="M178.876 96.1928L160.572 107.705L163.07 119.469L158.81 122.148L148.509 73.1983L153.057 70.3383L192.657 100.861L188.397 103.54L178.876 96.1928ZM175.568 93.6145L153.94 76.8519L159.681 103.606L175.568 93.6145Z" fill="black"/>
<path d="M202.61 55.4148C205.858 54.1369 208.983 53.7844 211.985 54.3572C214.987 54.9299 217.472 56.169 219.439 58.0744L216.477 50.5441L220.907 48.8015L234.847 84.2382C236.092 87.4022 236.499 90.4814 236.069 93.4759C235.682 96.4538 234.522 99.0779 232.59 101.348C230.674 103.661 228.155 105.431 225.033 106.659C220.604 108.402 216.498 108.799 212.715 107.851C208.974 106.887 206.032 104.732 203.887 101.386L208.254 99.6685C209.959 101.774 212.148 103.13 214.822 103.734C217.538 104.322 220.435 104.01 223.515 102.799C225.751 101.919 227.564 100.646 228.954 98.9787C230.361 97.3536 231.205 95.4138 231.487 93.1593C231.77 90.9048 231.413 88.5119 230.417 85.9807L227.057 77.438C226.889 80.2319 225.91 82.8823 224.12 85.3891C222.355 87.8372 219.848 89.7001 216.6 90.978C213.436 92.2227 210.298 92.6046 207.185 92.1238C204.116 91.6264 201.332 90.3099 198.836 88.1742C196.382 86.0219 194.458 83.1739 193.064 79.6302C191.67 76.0866 191.146 72.712 191.493 69.5066C191.865 66.2425 193.013 63.4036 194.938 60.9902C196.888 58.5179 199.446 56.6594 202.61 55.4148ZM223.273 67.8194C222.178 65.0351 220.646 62.8124 218.677 61.1511C216.708 59.4899 214.508 58.4797 212.077 58.1207C209.689 57.745 207.313 58.0219 204.951 58.9512C202.504 59.9138 200.526 61.3252 199.017 63.1854C197.508 65.0456 196.598 67.2545 196.289 69.8119C196.006 72.3105 196.428 74.9941 197.556 77.8628C198.668 80.6893 200.196 82.9626 202.139 84.6826C204.108 86.3439 206.287 87.3623 208.675 87.7379C211.047 88.0714 213.457 87.7569 215.904 86.7943C218.266 85.865 220.194 84.4491 221.686 82.5467C223.221 80.6276 224.143 78.3894 224.452 75.832C224.761 73.2746 224.368 70.6038 223.273 67.8194Z" fill="black"/>
<path d="M255.496 40.5959C258.949 40.0827 262.073 40.4434 264.869 41.6778C267.665 42.9122 269.807 44.6792 271.294 46.9788L270.105 38.9748L274.813 38.275L280.411 75.9413C280.911 79.3044 280.614 82.3962 279.521 85.2169C278.472 88.0309 276.751 90.3263 274.357 92.1028C271.969 93.9243 269.117 95.0816 265.798 95.5747C261.09 96.2745 257 95.7366 253.528 93.961C250.101 92.1788 247.719 89.4162 246.384 85.6732L251.025 84.9835C252.212 87.4194 254.04 89.2331 256.508 90.4245C259.022 91.6092 261.915 91.9583 265.189 91.4718C267.565 91.1186 269.618 90.2864 271.348 88.9751C273.085 87.7087 274.345 86.0091 275.128 83.8761C275.911 81.7432 276.102 79.3315 275.703 76.641L274.353 67.5608C273.56 70.2451 272.009 72.6068 269.7 74.6458C267.429 76.6332 264.567 77.8836 261.114 78.3967C257.751 78.8965 254.608 78.5616 251.684 77.3921C248.805 76.2158 246.39 74.3061 244.439 71.6629C242.533 69.013 241.3 65.8047 240.74 62.0381C240.18 58.2715 240.43 54.8657 241.49 51.8208C242.588 48.7244 244.347 46.2173 246.766 44.2995C249.223 42.3303 252.133 41.0957 255.496 40.5959ZM272.834 57.3371C272.394 54.3776 271.402 51.8668 269.858 49.8047C268.314 47.7426 266.398 46.2628 264.111 45.3653C261.868 44.4611 259.491 44.1957 256.98 44.5689C254.38 44.9554 252.134 45.8849 250.245 47.3573C248.356 48.8297 246.972 50.7769 246.095 53.1989C245.255 55.5694 245.062 58.2792 245.515 61.3284C245.962 64.3327 246.938 66.8917 248.444 69.0053C249.988 71.0674 251.881 72.5505 254.124 73.4546C256.36 74.314 258.778 74.5503 261.379 74.1638C263.89 73.7906 266.087 72.8454 267.969 71.3281C269.897 69.8042 271.3 67.8313 272.177 65.4093C273.055 62.9873 273.273 60.2966 272.834 57.3371Z" fill="black"/>
<path d="M296.361 31.3533C295.409 31.33 294.602 30.9702 293.939 30.2738C293.275 29.5773 292.956 28.7306 292.98 27.7336C293.005 26.7365 293.365 25.9291 294.06 25.3112C294.756 24.6481 295.581 24.3281 296.532 24.3514C297.484 24.3747 298.291 24.7345 298.955 25.431C299.619 26.0821 299.939 26.9061 299.914 27.9032C299.89 28.9002 299.53 29.7303 298.833 30.3935C298.137 31.0566 297.313 31.3766 296.361 31.3533ZM298.569 38.4134L297.661 75.5303L292.903 75.4139L293.81 38.297L298.569 38.4134Z" fill="black"/>
<path d="M346.946 61.8179C346.643 63.4215 346.367 64.638 346.118 65.4675L315.85 59.7453C315.461 62.5323 315.683 65.0195 316.515 67.2068C317.348 69.3941 318.647 71.1853 320.413 72.5804C322.188 73.9309 324.233 74.8251 326.55 75.263C329.579 75.8356 332.256 75.5807 334.583 74.4981C336.955 73.4239 338.711 71.7028 339.85 69.3346L344.795 70.2694C343.23 73.6645 340.763 76.22 337.394 77.936C334.077 79.6158 330.214 80.0389 325.804 79.2052C322.374 78.5567 319.444 77.2184 317.013 75.1902C314.591 73.1175 312.865 70.5306 311.837 67.4296C310.861 64.2924 310.731 60.8307 311.447 57.0444C312.163 53.2582 313.547 50.0828 315.601 47.5183C317.654 44.9537 320.183 43.1711 323.186 42.1703C326.19 41.1695 329.429 40.9975 332.903 41.6543C336.378 42.3112 339.264 43.6411 341.561 45.644C343.903 47.6554 345.52 50.0834 346.412 52.928C347.358 55.7365 347.536 58.6998 346.946 61.8179ZM342.227 60.7874C342.786 58.0786 342.667 55.6571 341.871 53.5227C341.119 51.3968 339.856 49.6585 338.081 48.308C336.307 46.9575 334.261 46.0633 331.945 45.6254C328.47 44.9686 325.298 45.5222 322.427 47.2862C319.556 49.0503 317.603 51.9338 316.57 55.9368L342.227 60.7874Z" fill="black"/>
<path d="M409.969 73.9798C408.152 77.6328 405.491 79.98 401.986 81.0213C398.481 82.0625 394.334 81.392 389.544 79.0097L380.959 74.7396L371.935 92.8832L367.673 90.7633L388.841 48.2052L401.688 54.5951C406.437 56.9572 409.453 59.8501 410.738 63.2737C412.063 66.7174 411.807 70.2861 409.969 73.9798ZM391.361 75.3566C398.018 78.6676 402.759 77.4819 405.586 71.7994C406.999 68.9581 407.277 66.4132 406.421 64.1646C405.565 61.916 403.392 59.9235 399.901 58.1873L391.316 53.9172L382.776 71.0866L391.361 75.3566Z" fill="black"/>
<path d="M414.421 94.1131C416.649 91.0249 419.205 88.7602 422.089 87.3193C425.036 85.868 428.046 85.2998 431.116 85.6146C434.251 85.9192 437.196 87.066 439.954 89.0552C442.822 91.1239 444.807 93.5627 445.911 96.3715C447.052 99.2068 447.34 101.985 446.774 104.707L451.548 98.0896L455.408 100.874L433.686 130.985L429.826 128.2L434.64 121.527C432.198 122.897 429.439 123.506 426.362 123.354C423.349 123.192 420.408 122.077 417.54 120.009C414.82 118.046 412.821 115.625 411.543 112.747C410.302 109.896 409.905 106.843 410.353 103.588C410.837 100.36 412.193 97.2014 414.421 94.1131ZM440.687 113.145C442.437 110.718 443.479 108.228 443.813 105.674C444.146 103.119 443.807 100.722 442.795 98.4833C441.82 96.2706 440.303 94.4216 438.244 92.9364C436.112 91.3981 433.855 90.4969 431.474 90.2328C429.093 89.9686 426.744 90.3977 424.425 91.5198C422.169 92.6317 420.14 94.4377 418.336 96.9378C416.559 99.401 415.473 101.915 415.076 104.48C414.742 107.034 415.063 109.417 416.038 111.63C417.04 113.806 418.607 115.663 420.739 117.201C422.798 118.687 425.031 119.543 427.439 119.77C429.883 120.024 432.264 119.59 434.583 118.468C436.902 117.346 438.936 115.571 440.687 113.145Z" fill="black"/>
<path d="M479.163 120.989C482.415 124.016 484.128 127.499 484.301 131.438C484.505 135.344 482.832 139.205 479.28 143.021L464.455 158.95L461.02 155.753L475.475 140.223C478.223 137.269 479.577 134.318 479.535 131.368C479.527 128.45 478.245 125.801 475.69 123.423C473.068 120.983 470.205 119.867 467.101 120.075C463.997 120.282 460.947 121.996 457.952 125.215L444.146 140.048L440.662 136.805L465.956 109.627L469.441 112.87L465.132 117.499C467.539 116.643 469.958 116.54 472.387 117.191C474.847 117.808 477.105 119.074 479.163 120.989Z" fill="black"/>
<path d="M501.974 150.569L484.981 166.146C483.31 167.677 482.448 169.052 482.395 170.269C482.342 171.485 483.051 172.896 484.521 174.5L487.462 177.708L484.454 180.465L481.008 176.706C478.741 174.233 477.625 171.874 477.658 169.629C477.725 167.354 479.079 165.007 481.719 162.587L498.712 147.01L495.22 143.201L498.177 140.49L501.669 144.299L508.537 138.004L511.799 141.563L504.932 147.858L511.824 155.377L508.866 158.088L501.974 150.569Z" fill="black"/>
<path d="M517.895 172.616C520.34 171.942 522.731 172.02 525.069 172.849C527.435 173.714 529.617 175.35 531.614 177.757L527.793 180.926L526.969 179.932C524.769 177.28 522.288 175.745 519.526 175.327C516.764 174.909 513.708 176.089 510.359 178.868L494.397 192.11L491.357 188.447L519.932 164.741L522.972 168.404L517.895 172.616Z" fill="black"/>
<path d="M554.241 208.619L497.332 223.731L494.355 219.759L512.826 214.925L533.241 180.594L536.381 184.784L518.607 213.908L551.305 204.701L554.241 208.619Z" fill="black"/>
</svg>
