<svg width="350" height="338" viewBox="0 0 350 338" fill="none" xmlns="http://www.w3.org/2000/svg">
<g filter="url(#filter0_d_33_569)">
<g filter="url(#filter1_d_33_569)">
<rect x="4" y="3" width="342" height="327" rx="40" fill="#F1B197"/>
</g>
<path d="M73.4205 50.9091C73.1468 48.1562 71.9313 45.9669 69.7741 44.3409C67.617 42.715 64.9044 41.902 61.6364 41.902C59.3343 41.902 57.3059 42.2964 55.5511 43.0852C53.8125 43.8741 52.4441 44.9687 51.446 46.3693C50.464 47.7538 49.973 49.3314 49.973 51.1023C49.973 52.4062 50.2547 53.5492 50.8182 54.5312C51.3816 55.5133 52.1383 56.3584 53.0881 57.0668C54.054 57.759 55.1165 58.3546 56.2756 58.8537C57.4508 59.3527 58.634 59.7713 59.8253 60.1094L65.0412 61.6065C66.6188 62.0412 68.1965 62.5966 69.7741 63.2727C71.3518 63.9489 72.7926 64.8021 74.0966 65.8324C75.4167 66.8466 76.4711 68.0942 77.2599 69.5753C78.0649 71.0402 78.4673 72.803 78.4673 74.8636C78.4673 77.5038 77.7831 79.8783 76.4148 81.9872C75.0464 84.0961 73.0824 85.7704 70.5227 87.0099C67.9631 88.2334 64.8963 88.8452 61.3224 88.8452C57.9579 88.8452 55.036 88.2898 52.5568 87.179C50.0777 86.0521 48.1297 84.4986 46.7131 82.5185C45.2964 80.5384 44.4995 78.2443 44.3224 75.6364H48.9588C49.1198 77.5843 49.7637 79.2344 50.8906 80.5866C52.0175 81.9389 53.4825 82.9692 55.2855 83.6776C57.0885 84.3698 59.1009 84.7159 61.3224 84.7159C63.7855 84.7159 65.9749 84.3054 67.8906 83.4844C69.8224 82.6473 71.3357 81.4882 72.4304 80.0071C73.5412 78.5099 74.0966 76.7713 74.0966 74.7912C74.0966 73.117 73.6619 71.7164 72.7926 70.5895C71.9233 69.4465 70.7079 68.4886 69.1463 67.7159C67.6009 66.9432 65.8059 66.259 63.7614 65.6634L57.8452 63.9247C53.9654 62.7656 50.955 61.1638 48.8139 59.1193C46.6728 57.0748 45.6023 54.4669 45.6023 51.2955C45.6023 48.6392 46.3106 46.3049 47.7273 44.2926C49.16 42.2642 51.0919 40.6866 53.5227 39.5597C55.9697 38.4167 58.7145 37.8452 61.7571 37.8452C64.8319 37.8452 67.5526 38.4086 69.919 39.5355C72.2855 40.6624 74.161 42.2159 75.5455 44.196C76.946 46.16 77.6946 48.3977 77.7912 50.9091H73.4205ZM92.7386 64.8182V88H88.4403V38.5455H92.7386V56.7287H93.125C93.9943 54.813 95.3385 53.2836 97.1577 52.1406C98.9929 50.9976 101.311 50.4261 104.112 50.4261C106.624 50.4261 108.829 50.9413 110.729 51.9716C112.628 53.0019 114.109 54.5232 115.172 56.5355C116.234 58.5478 116.766 61.027 116.766 63.973V88H112.443V64.2386C112.443 61.1799 111.59 58.7732 109.884 57.0185C108.193 55.2476 105.907 54.3622 103.026 54.3622C101.045 54.3622 99.2827 54.7808 97.7372 55.6179C96.1918 56.455 94.9683 57.6624 94.0668 59.2401C93.1813 60.8016 92.7386 62.661 92.7386 64.8182ZM142.501 88.7727C139.297 88.7727 136.464 87.9598 134.001 86.3338C131.554 84.7079 129.638 82.4621 128.254 79.5966C126.869 76.715 126.177 73.3906 126.177 69.6236C126.177 65.8243 126.869 62.4839 128.254 59.6023C129.638 56.7045 131.554 54.4508 134.001 52.8409C136.464 51.215 139.297 50.402 142.501 50.402C145.705 50.402 148.53 51.215 150.977 52.8409C153.424 54.4669 155.34 56.7206 156.724 59.6023C158.125 62.4839 158.825 65.8243 158.825 69.6236C158.825 73.3906 158.133 76.715 156.748 79.5966C155.364 82.4621 153.44 84.7079 150.977 86.3338C148.53 87.9598 145.705 88.7727 142.501 88.7727ZM142.501 84.8366C145.077 84.8366 147.258 84.1444 149.045 82.7599C150.832 81.3755 152.184 79.5322 153.102 77.2301C154.036 74.928 154.502 72.3925 154.502 69.6236C154.502 66.8546 154.036 64.3111 153.102 61.9929C152.184 59.6747 150.832 57.8153 149.045 56.4148C147.258 55.0142 145.077 54.3139 142.501 54.3139C139.941 54.3139 137.76 55.0142 135.957 56.4148C134.17 57.8153 132.81 59.6747 131.876 61.9929C130.958 64.3111 130.5 66.8546 130.5 69.6236C130.5 72.3925 130.958 74.928 131.876 77.2301C132.81 79.5322 134.17 81.3755 135.957 82.7599C137.744 84.1444 139.925 84.8366 142.501 84.8366ZM168.261 101.909V50.9091H172.438V57.9844H172.945C173.46 56.8736 174.169 55.7386 175.07 54.5795C175.972 53.4044 177.163 52.4143 178.644 51.6094C180.141 50.8045 182.025 50.402 184.295 50.402C187.353 50.402 190.026 51.2069 192.312 52.8168C194.614 54.4105 196.401 56.6482 197.673 59.5298C198.96 62.3954 199.604 65.7358 199.604 69.5511C199.604 73.3826 198.96 76.7391 197.673 79.6207C196.401 82.5024 194.614 84.7481 192.312 86.358C190.026 87.9678 187.37 88.7727 184.343 88.7727C182.105 88.7727 180.23 88.3703 178.717 87.5653C177.219 86.7604 176.004 85.7704 175.07 84.5952C174.153 83.4039 173.444 82.2448 172.945 81.1179H172.559V101.909H168.261ZM172.511 69.4787C172.511 72.473 172.953 75.1293 173.839 77.4474C174.74 79.7495 176.028 81.5606 177.702 82.8807C179.393 84.1847 181.437 84.8366 183.836 84.8366C186.299 84.8366 188.376 84.1605 190.066 82.8082C191.772 81.4399 193.068 79.5966 193.954 77.2784C194.855 74.9602 195.306 72.3603 195.306 69.4787C195.306 66.6293 194.863 64.0616 193.978 61.7756C193.109 59.4896 191.821 57.6785 190.114 56.3423C188.408 54.9901 186.315 54.3139 183.836 54.3139C181.421 54.3139 179.369 54.9659 177.678 56.2699C175.988 57.5578 174.7 59.3447 173.815 61.6307C172.945 63.9006 172.511 66.5166 172.511 69.4787ZM209.034 101.909V50.9091H213.212V57.9844H213.719C214.234 56.8736 214.942 55.7386 215.844 54.5795C216.745 53.4044 217.937 52.4143 219.418 51.6094C220.915 50.8045 222.798 50.402 225.068 50.402C228.127 50.402 230.799 51.2069 233.085 52.8168C235.387 54.4105 237.174 56.6482 238.446 59.5298C239.734 62.3954 240.378 65.7358 240.378 69.5511C240.378 73.3826 239.734 76.7391 238.446 79.6207C237.174 82.5024 235.387 84.7481 233.085 86.358C230.799 87.9678 228.143 88.7727 225.116 88.7727C222.879 88.7727 221.003 88.3703 219.49 87.5653C217.993 86.7604 216.777 85.7704 215.844 84.5952C214.926 83.4039 214.218 82.2448 213.719 81.1179H213.332V101.909H209.034ZM213.284 69.4787C213.284 72.473 213.727 75.1293 214.612 77.4474C215.514 79.7495 216.802 81.5606 218.476 82.8807C220.166 84.1847 222.211 84.8366 224.609 84.8366C227.072 84.8366 229.149 84.1605 230.839 82.8082C232.546 81.4399 233.842 79.5966 234.727 77.2784C235.629 74.9602 236.08 72.3603 236.08 69.4787C236.08 66.6293 235.637 64.0616 234.751 61.7756C233.882 59.4896 232.594 57.6785 230.888 56.3423C229.181 54.9901 227.089 54.3139 224.609 54.3139C222.195 54.3139 220.142 54.9659 218.452 56.2699C216.761 57.5578 215.473 59.3447 214.588 61.6307C213.719 63.9006 213.284 66.5166 213.284 69.4787ZM264.803 88.7727C261.342 88.7727 258.348 87.9678 255.82 86.358C253.293 84.732 251.337 82.4863 249.952 79.6207C248.584 76.7391 247.9 73.4228 247.9 69.6719C247.9 65.937 248.584 62.6207 249.952 59.723C251.337 56.8092 253.245 54.5312 255.675 52.8892C258.122 51.2311 260.948 50.402 264.151 50.402C266.164 50.402 268.103 50.7723 269.971 51.5128C271.838 52.2372 273.513 53.3561 274.994 54.8693C276.491 56.3665 277.674 58.258 278.543 60.544C279.413 62.8139 279.847 65.5024 279.847 68.6094V70.7344H250.87V66.9432H275.452C275.452 64.5606 274.969 62.4195 274.004 60.5199C273.054 58.6042 271.726 57.0909 270.019 55.9801C268.329 54.8693 266.373 54.3139 264.151 54.3139C261.801 54.3139 259.732 54.9418 257.945 56.1974C256.158 57.4531 254.758 59.1113 253.744 61.1719C252.746 63.2325 252.238 65.4863 252.222 67.9332V70.2031C252.222 73.1491 252.729 75.7249 253.744 77.9304C254.774 80.1198 256.231 81.8182 258.114 83.0256C259.998 84.233 262.228 84.8366 264.803 84.8366C266.558 84.8366 268.095 84.563 269.415 84.0156C270.752 83.4683 271.871 82.7358 272.772 81.8182C273.69 80.8845 274.382 79.8622 274.849 78.7514L278.93 80.0795C278.366 81.6411 277.441 83.0819 276.153 84.402C274.881 85.7221 273.287 86.7846 271.371 87.5895C269.472 88.3783 267.282 88.7727 264.803 88.7727ZM289.319 88V50.9091H293.497V56.608H293.811C294.551 54.7405 295.839 53.2353 297.674 52.0923C299.526 50.9332 301.618 50.3537 303.953 50.3537C304.307 50.3537 304.701 50.3617 305.136 50.3778C305.571 50.3939 305.933 50.41 306.223 50.4261V54.7969C306.029 54.7647 305.691 54.7164 305.208 54.652C304.725 54.5876 304.202 54.5554 303.639 54.5554C301.707 54.5554 299.984 54.9659 298.471 55.7869C296.974 56.5919 295.791 57.7107 294.922 59.1435C294.052 60.5762 293.618 62.2102 293.618 64.0455V88H289.319Z" fill="black"/>
<path d="M147.811 259.566C149.719 259.566 151.549 258.915 152.899 257.755C154.247 256.596 155.005 255.025 155.005 253.385C155.005 251.746 154.247 250.174 152.899 249.015C151.549 247.855 149.718 247.204 147.811 247.204C145.902 247.204 144.072 247.855 142.723 249.015C141.373 250.174 140.615 251.746 140.615 253.385C140.615 255.025 141.373 256.596 142.723 257.755C144.072 258.915 145.902 259.566 147.811 259.566ZM147.811 251.325C148.781 251.325 149.656 251.827 150.027 252.597C150.397 253.367 150.192 254.253 149.507 254.842C148.82 255.431 147.789 255.608 146.893 255.289C145.996 254.97 145.411 254.218 145.411 253.385C145.411 252.247 146.486 251.325 147.811 251.325Z" fill="black"/>
<path d="M207.773 259.566C209.681 259.566 211.512 258.915 212.861 257.755C214.21 256.596 214.968 255.025 214.968 253.385C214.968 251.746 214.21 250.174 212.861 249.015C211.512 247.855 209.681 247.204 207.773 247.204C205.864 247.204 204.034 247.855 202.685 249.015C201.336 250.174 200.578 251.746 200.578 253.385C200.578 255.025 201.336 256.596 202.685 257.755C204.034 258.915 205.864 259.566 207.773 259.566ZM207.773 251.325C208.743 251.325 209.618 251.827 209.989 252.597C210.36 253.367 210.155 254.253 209.469 254.842C208.783 255.431 207.752 255.608 206.854 255.289C205.958 254.97 205.374 254.218 205.374 253.385C205.374 252.247 206.449 251.325 207.773 251.325Z" fill="black"/>
<path d="M237.349 167.082C235.982 165.636 233.929 164.795 231.76 164.795H132.462L128.457 149.054C128.107 147.677 127.22 146.444 125.941 145.56C124.663 144.676 123.071 144.193 121.429 144.192H102.241C99.6701 144.192 97.2946 145.371 96.0091 147.283C94.7237 149.195 94.7237 151.551 96.0091 153.464C97.2945 155.376 99.6702 156.554 102.241 156.554H115.648L117.855 165.228C117.976 165.772 118.348 166.25 118.884 166.557C119.421 166.863 120.079 166.971 120.71 166.855C122 166.609 122.816 165.513 122.532 164.404L119.918 154.103C119.677 153.136 118.67 152.453 117.519 152.475H102.241C100.903 152.475 99.8188 151.543 99.8188 150.394C99.8188 149.245 100.903 148.313 102.241 148.313H121.429C122.58 148.291 123.587 148.975 123.827 149.941L140.617 215.871C140.762 216.473 140.587 217.1 140.137 217.58L132.486 225.821C131.56 226.801 131.045 228.02 131.023 229.283C131.023 230.758 131.705 232.173 132.92 233.215C134.134 234.259 135.781 234.845 137.499 234.845H207.775C209.1 234.845 210.173 233.923 210.173 232.785C210.173 231.647 209.1 230.724 207.775 230.724H137.499C136.858 230.713 136.279 230.394 136 229.898C135.722 229.402 135.792 228.813 136.18 228.376L143.832 220.135H143.831C144.322 219.596 144.703 218.991 144.959 218.343H221.713H221.711C223.367 218.344 224.973 217.855 226.257 216.957C227.541 216.061 228.426 214.81 228.763 213.418L238.766 172.213V172.214C239.208 170.408 238.689 168.526 237.35 167.084L237.349 167.082ZM224.108 212.593C223.878 213.568 222.868 214.261 221.71 214.242H144.956L133.42 168.915H231.758C232.484 168.913 233.172 169.193 233.629 169.677C234.078 170.157 234.254 170.785 234.109 171.388L224.108 212.593Z" fill="black"/>
<path d="M183.788 175.096C181.88 175.096 180.05 175.747 178.7 176.907C177.352 178.066 176.594 179.638 176.594 181.277V201.88C176.594 204.088 177.965 206.128 180.191 207.232C182.417 208.337 185.161 208.337 187.386 207.232C189.613 206.128 190.984 204.088 190.984 201.88V181.277C190.984 179.637 190.226 178.066 188.877 176.907C187.527 175.747 185.697 175.096 183.788 175.096ZM186.187 201.881H186.188C186.188 203.018 185.113 203.941 183.788 203.941C182.464 203.941 181.39 203.018 181.39 201.881V181.278C181.39 180.14 182.464 179.218 183.788 179.218C185.113 179.218 186.188 180.14 186.188 181.278L186.187 201.881Z" fill="black"/>
<path d="M205.375 175.096C203.468 175.096 201.637 175.747 200.287 176.907C198.939 178.066 198.181 179.638 198.181 181.277V201.88C198.181 204.088 199.552 206.128 201.779 207.232C204.004 208.337 206.748 208.337 208.973 207.232C211.2 206.128 212.571 204.088 212.571 201.88V181.277C212.571 179.637 211.813 178.066 210.464 176.907C209.115 175.747 207.284 175.096 205.375 175.096ZM207.774 201.881H207.775C207.775 203.018 206.7 203.941 205.375 203.941C204.051 203.941 202.977 203.018 202.977 201.881V181.278C202.977 180.14 204.051 179.218 205.375 179.218C206.7 179.218 207.775 180.14 207.775 181.278L207.774 201.881Z" fill="black"/>
<path d="M162.201 175.096C160.293 175.096 158.463 175.747 157.113 176.907C155.764 178.066 155.005 179.638 155.005 181.277V201.88C155.005 204.088 156.378 206.128 158.603 207.232C160.83 208.337 163.573 208.337 165.799 207.232C168.026 206.128 169.397 204.088 169.397 201.88V181.277C169.397 179.637 168.639 178.066 167.289 176.907C165.94 175.747 164.11 175.096 162.201 175.096H162.201ZM164.599 201.881C164.599 203.018 163.526 203.941 162.201 203.941C160.876 203.941 159.803 203.018 159.803 201.881V181.278C159.803 180.14 160.876 179.218 162.201 179.218C163.526 179.218 164.599 180.14 164.599 181.278V201.881Z" fill="black"/>
<path d="M226.962 230.722H217.368C216.044 230.722 214.969 231.645 214.969 232.783C214.969 233.921 216.044 234.843 217.368 234.843H226.962C228.287 234.843 229.361 235.765 229.361 236.903C229.361 238.041 228.287 238.963 226.962 238.963H137.497C134.51 238.958 131.646 237.936 129.533 236.121C127.421 234.307 126.231 231.847 126.225 229.281C126.213 227.088 127.058 224.955 128.623 223.223L134.835 216.548C135.292 216.063 135.468 215.427 135.314 214.817L124.642 172.602C124.364 171.464 123.064 170.735 121.739 170.975C120.415 171.213 119.566 172.329 119.844 173.467L130.35 214.672L124.857 220.585C122.364 223.208 121.08 226.528 121.25 229.911C121.421 233.295 123.034 236.507 125.782 238.935C128.53 241.364 132.221 242.841 136.155 243.083C132.938 245.763 131.104 249.439 131.058 253.288C131.013 257.138 132.763 260.843 135.915 263.579C139.069 266.314 143.365 267.854 147.847 267.854C152.329 267.854 156.625 266.314 159.778 263.579C162.931 260.843 164.681 257.138 164.635 253.288C164.59 249.439 162.756 245.763 159.539 243.083H196.043C192.841 245.769 191.02 249.442 190.983 253.287C190.947 257.132 192.7 260.829 195.853 263.559C199.006 266.289 203.297 267.823 207.773 267.823C212.249 267.823 216.539 266.289 219.691 263.559C222.844 260.829 224.597 257.132 224.561 253.287C224.526 249.442 222.703 245.768 219.501 243.083H226.961C229.53 243.083 231.906 241.905 233.191 239.992C234.477 238.079 234.477 235.724 233.191 233.811C231.906 231.899 229.53 230.721 226.961 230.721L226.962 230.722ZM159.803 253.385C159.803 256.117 158.539 258.737 156.291 260.669C154.042 262.602 150.991 263.686 147.811 263.686C144.63 263.686 141.579 262.602 139.331 260.669C137.082 258.737 135.819 256.117 135.819 253.385C135.819 250.654 137.082 248.033 139.331 246.101C141.579 244.17 144.63 243.084 147.811 243.084C150.991 243.084 154.042 244.17 156.291 246.101C158.539 248.033 159.803 250.654 159.803 253.385ZM219.766 253.385C219.766 256.117 218.502 258.737 216.254 260.669C214.004 262.602 210.954 263.686 207.774 263.686C204.592 263.686 201.542 262.602 199.294 260.669C197.044 258.737 195.78 256.117 195.78 253.385C195.78 250.654 197.044 248.033 199.294 246.101C201.542 244.17 204.592 243.084 207.774 243.084C210.954 243.084 214.004 244.17 216.254 246.101C218.502 248.033 219.766 250.654 219.766 253.385Z" fill="black"/>
</g>
<defs>
<filter id="filter0_d_33_569" x="0" y="0" width="350" height="335" filterUnits="userSpaceOnUse" color-interpolation-filters="sRGB">
<feFlood flood-opacity="0" result="BackgroundImageFix"/>
<feColorMatrix in="SourceAlpha" type="matrix" values="0 0 0 0 0 0 0 0 0 0 0 0 0 0 0 0 0 0 127 0" result="hardAlpha"/>
<feOffset dy="1"/>
<feGaussianBlur stdDeviation="2"/>
<feComposite in2="hardAlpha" operator="out"/>
<feColorMatrix type="matrix" values="0 0 0 0 0 0 0 0 0 0 0 0 0 0 0 0 0 0 0.25 0"/>
<feBlend mode="normal" in2="BackgroundImageFix" result="effect1_dropShadow_33_569"/>
<feBlend mode="normal" in="SourceGraphic" in2="effect1_dropShadow_33_569" result="shape"/>
</filter>
<filter id="filter1_d_33_569" x="0" y="3" width="350" height="335" filterUnits="userSpaceOnUse" color-interpolation-filters="sRGB">
<feFlood flood-opacity="0" result="BackgroundImageFix"/>
<feColorMatrix in="SourceAlpha" type="matrix" values="0 0 0 0 0 0 0 0 0 0 0 0 0 0 0 0 0 0 127 0" result="hardAlpha"/>
<feOffset dy="4"/>
<feGaussianBlur stdDeviation="2"/>
<feComposite in2="hardAlpha" operator="out"/>
<feColorMatrix type="matrix" values="0 0 0 0 0 0 0 0 0 0 0 0 0 0 0 0 0 0 0.25 0"/>
<feBlend mode="normal" in2="BackgroundImageFix" result="effect1_dropShadow_33_569"/>
<feBlend mode="normal" in="SourceGraphic" in2="effect1_dropShadow_33_569" result="shape"/>
</filter>
</defs>
</svg>
